<svg width="88" height="20" viewBox="0 0 88 20" fill="none" xmlns="http://www.w3.org/2000/svg">
<g clip-path="url(#clip0_1981_32488)">
<path d="M7.12359 9.60411C8.03321 9.16732 8.55824 8.41209 8.55824 7.48902C8.55824 6.64557 8.09155 5.93982 7.20569 5.45355C6.8924 5.28141 6.52941 5.1394 6.12754 5.03182C5.63275 4.90057 5.12068 4.84893 4.60862 4.84247L0.00432125 4.78223L0 15.2737H4.40552C5.9158 15.2737 7.16896 15.0155 8.02889 14.5271C8.92987 14.0172 9.40521 13.2598 9.40521 12.3389C9.40521 11.0393 8.58417 10.0689 7.12142 9.60411H7.12359ZM4.98457 8.60574C4.61294 8.85102 4.07062 8.98012 3.41163 8.98012H3.00759V6.51647H3.96043C4.4941 6.51647 4.89382 6.6219 5.15093 6.83061C5.38644 7.02211 5.50096 7.30183 5.50096 7.68913C5.50096 8.07643 5.32594 8.37981 4.98024 8.60574H4.98457ZM3.00111 13.5395V10.3981H3.5175C5.2568 10.3981 6.33712 11.0371 6.33712 12.0635C6.33712 13.1501 4.99537 13.5395 3.74004 13.5395H2.99895H3.00111Z" fill="#00C4B3"/>
<path d="M27.6731 10.0151C27.1459 9.50084 26.394 9.07266 25.3763 8.70903L24.9766 8.56702C23.8725 8.18187 23.2956 7.9538 23.2956 7.34488C23.2956 6.84999 23.7083 6.50357 24.2982 6.50357C24.9809 6.50357 25.3223 6.93391 25.6831 7.39221L25.9878 7.7666L27.9151 6.48851L27.7098 6.18943C27.1156 5.32661 25.8063 4.77148 24.3781 4.77148C23.2503 4.77148 22.2996 5.05766 21.6255 5.60203C20.96 6.13779 20.61 6.87366 20.61 7.73433C20.61 9.46211 22.0879 10.2023 23.6824 10.7424C24.9636 11.1942 25.614 11.7579 25.614 12.4142C25.614 13.1953 25.0846 13.4728 24.5899 13.4728C23.5117 13.4728 22.9564 12.7219 22.5545 11.9882L22.3687 11.6482L20.3291 12.9779L20.4242 13.2426C20.7612 14.1829 22.0252 15.2824 24.4732 15.2824C25.2488 15.2824 26.3616 15.1597 27.2604 14.5766C28.116 14.0215 28.5697 13.1608 28.5697 12.0893C28.5697 11.2846 28.2759 10.6068 27.6731 10.0194V10.0151Z" fill="#00C4B3"/>
<path d="M43.9197 9.40167C43.8916 8.09776 43.4897 6.9832 42.7595 6.17847C41.9125 5.2468 40.6939 4.77344 39.1253 4.77344C37.6236 4.77344 36.3878 5.2468 35.5494 6.13759C34.7824 6.95307 34.3633 8.087 34.3373 9.41027L34.333 15.2822H37.4141V9.761L37.4162 9.40597C37.4162 8.89172 37.4205 8.11497 37.6431 7.49529C37.8937 6.796 38.3475 6.4711 39.0691 6.4711H39.121C40.5578 6.50338 40.8084 7.88044 40.8343 9.27472V15.28H43.9154V9.7653H43.9262L43.9175 9.40167H43.9197Z" fill="#FF5100"/>
<path d="M19.6145 4.78262H16.5312V10.6222C16.5312 11.1408 16.5312 11.9218 16.3065 12.5415C16.0559 13.2408 15.6022 13.5657 14.8805 13.5657H14.8287C13.394 13.5334 13.1412 12.165 13.1153 10.7729V4.77832H10.0321V10.2715H10.0234L10.0321 10.6352C10.0623 11.9391 10.462 13.0536 11.1923 13.8583C12.0393 14.79 13.2579 15.2634 14.8179 15.2634H14.8265C16.326 15.2634 17.5619 14.79 18.4002 13.8992C19.1672 13.0837 19.5864 11.9498 19.6145 10.6179V10.5017V4.78262Z" fill="#00C4B3"/>
<path d="M62.4416 10.0063C61.9144 9.49205 61.1625 9.06387 60.1449 8.70024L59.7452 8.55823C58.6411 8.17308 58.0642 7.94501 58.0642 7.33609C58.0642 6.8412 58.4769 6.49479 59.0667 6.49479C59.7495 6.49479 60.0909 6.92512 60.4495 7.37912L60.7542 7.75781L62.6836 6.47757L62.4784 6.18064C61.8842 5.31998 60.5748 4.7627 59.1467 4.7627C58.021 4.7627 57.0682 5.04887 56.394 5.59324C55.7286 6.129 55.3785 6.86487 55.3785 7.72339C55.3785 9.45117 56.8564 10.1913 58.4509 10.7314C59.7322 11.1833 60.3826 11.747 60.3826 12.4033C60.3826 13.1822 59.8532 13.4597 59.3584 13.4597C58.2803 13.4597 57.725 12.7088 57.3231 11.9751L57.1373 11.6351L55.0977 12.9648L55.1927 13.2295C55.5298 14.1698 56.7937 15.2671 59.2417 15.2671C60.0174 15.2671 61.1301 15.1445 62.0289 14.5614C62.8846 14.0062 63.3383 13.1456 63.3383 12.0741C63.3383 11.2693 63.0444 10.5916 62.4416 10.0042V10.0063Z" fill="#00C4B3"/>
<path d="M71.2273 10.0063C70.7002 9.49205 69.9504 9.06387 68.9306 8.70024L68.5309 8.55823C67.4268 8.17308 66.8499 7.94501 66.8499 7.33609C66.8499 6.8412 67.2626 6.49479 67.8524 6.49479C68.5352 6.49479 68.8766 6.92512 69.2374 7.38127L69.5421 7.75781L71.4715 6.47757L71.2662 6.18064C70.6721 5.31998 69.3627 4.7627 67.9346 4.7627C66.8067 4.7627 65.856 5.04887 65.1819 5.59324C64.5164 6.129 64.1664 6.86487 64.1664 7.72339C64.1664 9.45117 65.6443 10.1913 67.2388 10.7314C68.5201 11.1833 69.1704 11.747 69.1704 12.4033C69.1704 13.1822 68.6411 13.4597 68.1463 13.4597C67.0681 13.4597 66.5129 12.7088 66.1131 11.9751L65.9273 11.6351L63.8877 12.9648L63.9828 13.2295C64.3198 14.1698 65.5838 15.2671 68.0318 15.2671C68.8074 15.2671 69.9202 15.1445 70.819 14.5614C71.6746 14.0062 72.1283 13.1456 72.1283 12.0741C72.1283 11.2693 71.8345 10.5916 71.2317 10.0042L71.2273 10.0063Z" fill="#00C4B3"/>
<path d="M32.9863 4.77148H29.7432V15.2802H32.9863V4.77148Z" fill="#00C4B3"/>
<path d="M53.2214 5.96359C52.4025 5.14811 51.2833 4.71777 49.9913 4.71777C48.6149 4.71777 47.3834 5.24923 46.4392 6.25621C45.5101 7.24383 44.998 8.61013 44.998 10.0991C44.998 11.6633 45.4712 12.9242 46.3636 13.7526C47.4482 14.7488 48.7748 15.2803 50.2073 15.2803C51.3416 15.2803 52.3679 14.9597 53.1652 14.5466L53.1047 14.1765L52.8498 12.6058L52.7893 12.2357C52.1346 12.5993 51.3092 12.8661 50.4904 12.8661C49.9394 12.8661 49.1702 12.737 48.6279 12.1217C48.3492 11.8054 48.1979 11.3062 48.1526 10.523H53.1695C54.0856 10.523 54.4918 10.1098 54.4918 9.18033C54.481 7.89148 54.0403 6.77692 53.2192 5.96359H53.2214ZM48.1418 8.92428C48.2779 7.5967 49.0255 6.68439 50.0129 6.68439C50.5249 6.68439 50.9246 6.89741 51.2034 7.31483C51.4583 7.69998 51.6031 8.25081 51.6333 8.92428H48.1418Z" fill="#00C4B3"/>
<path d="M79.1068 11.6573L79.7132 11.2442C79.8686 11.1371 79.9086 10.9272 79.7998 10.7742L78.7759 9.32494C78.6537 9.15225 78.7803 8.91836 78.9913 8.91836H80.7859C80.9747 8.91836 81.1279 8.76753 81.1279 8.58173V7.85382C81.1279 7.66802 80.9747 7.51719 80.7859 7.51719H78.9913C78.7781 7.51719 78.6537 7.28329 78.7759 7.11061L79.7998 5.66134C79.9086 5.50833 79.8686 5.2963 79.7132 5.19137L79.1068 4.77823C78.9514 4.67112 78.7359 4.71047 78.6293 4.86349L77.1279 6.99257L75.6265 4.86349C75.5177 4.71047 75.3045 4.67112 75.149 4.77823L74.5427 5.19137C74.3872 5.29848 74.3472 5.50833 74.4561 5.66134L75.48 7.11061C75.6021 7.28329 75.4755 7.51719 75.2645 7.51719H73.47C73.2812 7.51719 73.1279 7.66802 73.1279 7.85382V8.58173C73.1279 8.76753 73.2812 8.91836 73.47 8.91836H75.2645C75.4777 8.91836 75.6021 9.15225 75.48 9.32494L74.4561 10.7742C74.3472 10.9272 74.3872 11.1392 74.5427 11.2442L75.149 11.6573C75.3045 11.7644 75.5199 11.7251 75.6265 11.5721L77.1279 9.44298L78.6293 11.5721C78.7381 11.7251 78.9514 11.7644 79.1068 11.6573Z" fill="#FF5100"/>
</g>
<defs>
<clipPath id="clip0_1981_32488">
<rect width="81.1282" height="10.5648" fill="white" transform="translate(0 4.71777)"/>
</clipPath>
</defs>
</svg>
