<svg width="66" height="26" viewBox="0 0 66 26" fill="none" xmlns="http://www.w3.org/2000/svg">
<g clip-path="url(#clip0_3542_5753)">
<path d="M25.9682 0.305176C25.9211 0.4825 25.8734 0.660443 25.8263 0.840239C25.778 1.02127 25.7302 1.20292 25.6819 1.38519C25.6348 1.56622 25.5871 1.74911 25.5387 1.93384C25.5363 1.94002 25.535 1.94744 25.5326 1.95485C25.4855 2.13218 25.439 2.31135 25.3919 2.49239C25.1942 3.24494 24.9922 4.02282 24.7809 4.83839C24.7276 5.0429 24.6749 5.24802 24.6216 5.45686C24.5132 5.87762 24.4035 6.30826 24.2894 6.75127C24.2374 6.95084 24.186 7.15349 24.1339 7.358C23.9821 7.95609 23.8241 8.57333 23.6611 9.21651C23.6239 9.36295 23.5861 9.51061 23.5489 9.66075C23.4981 9.85785 23.4479 10.0568 23.3971 10.2588C23.179 11.1275 22.9491 12.0389 22.7074 13.0009C22.4645 13.9876 22.2346 14.9212 22.0152 15.8103C21.9241 16.1816 21.8336 16.5461 21.7462 16.9026C21.6142 17.4389 21.486 17.9579 21.3626 18.464C21.3317 18.5919 21.2994 18.7173 21.2703 18.8427C21.0162 19.8745 20.7795 20.8452 20.5533 21.7732C20.5112 21.9468 20.4697 22.1186 20.4288 22.2897C20.4226 22.3144 20.4164 22.3379 20.4114 22.3608C20.3643 22.5554 20.3178 22.7482 20.272 22.9391C20.1264 23.5434 19.9869 24.1297 19.8512 24.7043C19.8239 24.8161 19.7979 24.9267 19.7725 25.038C19.7205 25.2591 19.669 25.4785 19.6182 25.696H14.9668C14.9953 25.5878 15.0238 25.4797 15.0517 25.371C15.0715 25.3018 15.0889 25.2332 15.1075 25.1634C15.1434 25.0293 15.1775 24.8952 15.2134 24.7599C15.3206 24.354 15.4266 23.9419 15.5357 23.5211C15.5605 23.4278 15.5852 23.3339 15.6082 23.2394C15.6578 23.0509 15.7055 22.8606 15.755 22.6685C15.755 22.6672 15.7563 22.6672 15.755 22.666C15.8412 22.3299 15.9292 21.9882 16.0166 21.6404C16.1052 21.2925 16.1944 20.9379 16.2855 20.5752C16.3642 20.265 16.4435 19.9493 16.5235 19.6268C16.5718 19.4334 16.6195 19.2394 16.6691 19.0423C16.785 18.5795 16.9021 18.105 17.0229 17.615C17.0812 17.3827 17.1388 17.1473 17.1983 16.9088C17.2795 16.5752 17.3638 16.2347 17.4487 15.8875C17.4561 15.8616 17.4623 15.8356 17.4685 15.8103C17.6866 14.9224 17.9153 13.987 18.157 13.0009C18.3999 12.0401 18.6298 11.1288 18.8504 10.2588C18.9452 9.8838 19.0382 9.51556 19.128 9.15534C19.1888 8.91562 19.2489 8.67774 19.3084 8.44419C19.5438 7.50938 19.7663 6.62337 19.9783 5.77876C20.0303 5.57116 20.0805 5.36665 20.1313 5.164C20.1326 5.16029 20.1338 5.15658 20.135 5.15164C20.1858 4.94651 20.236 4.742 20.2869 4.53996C20.2968 4.49918 20.3067 4.45902 20.3166 4.41948C20.3451 4.30394 20.3736 4.18964 20.4015 4.07533C20.4536 3.87021 20.5025 3.66569 20.5533 3.46489C20.5855 3.33082 20.619 3.19674 20.6506 3.06514C20.6977 2.87299 20.7442 2.68269 20.79 2.49424C20.8247 2.35275 20.8588 2.2125 20.8923 2.07348C20.9605 1.79421 21.0268 1.51988 21.0912 1.24679C21.1247 1.11148 21.1569 0.974932 21.1885 0.840857C21.2319 0.661061 21.2734 0.483118 21.3155 0.305794H25.967L25.9682 0.305176Z" fill="#FF5100"/>
<path d="M9.06299 9.4118C9.33441 8.46401 9.57237 7.58357 9.77625 6.77108C10.1158 5.31542 9.98013 4.77356 9.30095 4.77356C8.68993 4.77356 8.35034 5.28143 8.04483 6.46648C7.53545 8.46401 7.50136 9.75039 8.7581 11.1047C10.6593 13.0003 11.3726 15.0318 10.2181 19.6701C9.09769 24.105 7.67116 26.0006 4.17423 26.0006C0.167922 26.0006 -0.579427 23.5972 0.371181 19.9407C0.676689 18.7217 0.982198 17.6725 1.32179 16.4535C1.86526 16.5215 2.57791 16.5215 3.3928 16.5215C3.97035 16.5215 4.54729 16.5215 4.92096 16.4875C4.64954 17.3679 4.44566 18.1804 4.30995 18.7896C3.86872 20.5159 3.93627 21.1257 4.61545 21.1257C5.29464 21.1257 5.60015 20.6179 5.93974 19.2975C6.48321 17.0967 6.41504 15.9456 5.19301 14.7272C2.9522 12.865 2.68015 10.6648 3.80056 6.19586C4.92034 1.69293 6.6183 0 9.94543 0C13.6462 0 14.5634 1.96355 13.5105 6.1279C13.2391 7.14365 12.967 8.22675 12.594 9.44578C12.0846 9.4118 11.2697 9.4118 10.5905 9.4118H9.06237H9.06299Z" fill="#00C4B3"/>
<path d="M26.2372 25.6956C27.1543 22.2424 28.1049 18.4167 29.4292 12.9999C30.7876 7.61714 31.7723 3.7574 32.5872 0.304199H37.2392C36.3221 3.7574 35.3374 7.58316 33.9796 12.9999C32.6553 18.3827 31.7047 22.2084 30.8898 25.6956H26.2378H26.2372Z" fill="#00C4B3"/>
<path d="M46.8816 0.304688C46.5761 1.38779 46.1349 3.04673 45.7947 4.46904C45.4551 5.7894 45.0814 7.31303 44.844 8.2948C43.5198 8.26082 42.1273 8.26082 40.9394 8.26082L40.1585 11.3414L39.8871 12.4585C41.2114 12.4585 42.6039 12.4246 43.6902 12.3572C43.283 14.0161 42.4 17.5367 41.9247 19.3989C40.8718 19.3309 39.5816 19.2976 38.3255 19.2976C37.8502 21.4304 37.3749 23.5293 36.8655 25.6961H32.2476C33.1647 22.1749 34.1494 18.4171 35.4737 13.0004C36.832 7.61763 37.7486 3.89381 38.5975 0.304688H46.8828H46.8816Z" fill="#00C4B3"/>
<path d="M56.1528 0.304688C55.9489 1.08319 55.6434 2.3362 55.3379 3.45328C55.1005 4.53638 54.7603 5.82338 54.5571 6.7032H52.7234C50.8563 14.3208 48.4791 23.9012 48.0714 25.6955C47.4263 25.6615 46.3734 25.6615 45.6608 25.6615C44.8799 25.6615 43.8612 25.6615 43.2161 25.6955C43.7255 23.9352 46.1701 14.3201 48.0379 6.7032H46.2042C46.4763 5.82276 46.7818 4.53638 47.0532 3.45328C47.3587 2.3362 47.6642 1.11717 47.7999 0.304688H56.1528Z" fill="#00C4B3"/>
<path d="M63.1622 8.54675L63.8717 8.05493C64.0539 7.92889 64.0998 7.67866 63.9727 7.49639L62.7742 5.77566C62.6323 5.57177 62.7786 5.29312 63.0271 5.29312H65.1291C65.3509 5.29312 65.5306 5.11394 65.5306 4.89275V4.03022C65.5306 3.80903 65.3509 3.62923 65.1291 3.62923H63.0271C62.7786 3.62923 62.6323 3.35058 62.7742 3.14668L63.9727 1.42596C64.0998 1.24431 64.0545 0.994074 63.8717 0.867414L63.1622 0.3756C62.98 0.24894 62.729 0.294043 62.602 0.476311L60.8414 3.00272L59.0815 0.476311C58.9545 0.294661 58.7035 0.249558 58.5213 0.3756L57.8117 0.867414C57.6289 0.993456 57.5837 1.24369 57.7107 1.42596L58.9098 3.14668C59.0518 3.35058 58.9055 3.62923 58.6564 3.62923H56.5544C56.3325 3.62923 56.1528 3.80841 56.1528 4.03022V4.89275C56.1528 5.11394 56.3325 5.29312 56.5544 5.29312H58.6564C58.9055 5.29312 59.0518 5.57177 58.9098 5.77566L57.7107 7.49639C57.5837 7.67866 57.6289 7.92827 57.8117 8.05493L58.5213 8.54675C58.7035 8.67341 58.9545 8.6283 59.0815 8.44604L60.8414 5.91962L62.602 8.44604C62.7284 8.6283 62.9794 8.67341 63.1622 8.54675Z" fill="#FF5100"/>
<path d="M23.5434 1.05947L23.184 0.97112C23.3606 0.256261 23.3723 0.237725 23.394 0.203125L23.7076 0.399603C23.7163 0.38601 23.7206 0.374889 23.7206 0.373653C23.7132 0.393425 23.6816 0.500314 23.5434 1.05886V1.05947Z" fill="white"/>
<path d="M22.5326 5.2811L22.1726 5.19645C22.2903 4.69908 22.4019 4.22766 22.5066 3.78774L22.8667 3.87301C22.7619 4.31292 22.6504 4.78434 22.5326 5.28172V5.2811ZM23.034 3.16865L22.6739 3.08339C22.8016 2.54832 22.915 2.07443 23.0123 1.67529L23.3723 1.76179C23.2757 2.16093 23.1623 2.63482 23.0346 3.16927L23.034 3.16865Z" fill="white"/>
<path d="M18.0728 24.3265L17.7122 24.243L18.0412 22.8306L18.4019 22.914L18.0728 24.3265ZM18.5661 22.2084L18.2054 22.125L18.5345 20.7138L18.8952 20.7973L18.5661 22.2084ZM19.06 20.0917L18.6993 20.0083L19.0284 18.5971L19.389 18.6805L19.06 20.0917ZM19.5539 17.9749L19.1932 17.8909L19.5229 16.4803L19.8836 16.5643L19.5539 17.9749ZM20.0484 15.8587L19.6877 15.7747L20.018 14.3641L20.3787 14.4482L20.049 15.8587H20.0484ZM20.5435 13.7426L20.1829 13.6586L20.5132 12.248L20.8738 12.332L20.5435 13.7426ZM21.0387 11.6277L20.678 11.5436L21.0089 10.1331L21.3696 10.2171L21.0387 11.6277ZM21.5357 9.51212L21.175 9.42809L21.5065 8.01752L21.8672 8.10155L21.5357 9.51212ZM22.0333 7.39658L21.6732 7.31193C21.7873 6.82692 21.8988 6.35549 22.006 5.90137L22.366 5.98601C22.2588 6.43952 22.1479 6.91094 22.0333 7.39596V7.39658Z" fill="white"/>
<path d="M17.5527 24.9313L17.3855 25.6499L17.7459 25.7333L17.9131 25.0146L17.5527 24.9313Z" fill="white"/>
<path d="M31.2282 0.305176C30.3117 3.85908 29.327 7.61688 27.9686 13.0003C26.645 18.4164 25.7625 22.0395 24.8794 25.6954H20.3972C21.1105 22.9879 22.1627 18.9249 22.9435 15.8097H16.6004C15.8195 18.9243 14.8014 22.9873 14.1563 25.6954H9.70752C10.6935 22.0395 11.61 18.4164 12.9336 13.0003C14.292 7.61688 15.242 3.85908 16.0575 0.305176H20.505C19.7918 2.94527 18.7742 7.07564 17.9587 10.2582H24.3019C25.0827 7.10901 26.1356 2.94527 26.7472 0.305176H31.2282Z" fill="#00C4B3"/>
</g>
<defs>
<clipPath id="clip0_3542_5753">
<rect width="65.5306" height="26" fill="white"/>
</clipPath>
</defs>
</svg>
