<svg width="64" height="24" viewBox="0 0 64 24" fill="none" xmlns="http://www.w3.org/2000/svg">
    <g clip-path="url(#clip0_587_7546)">
    <path d="M27.4025 0.5H23.269C22.5617 0.5 21.9883 1.07279 21.9883 1.77937V3.28838C21.9883 3.99495 22.5617 4.56775 23.269 4.56775H27.4025C28.1098 4.56775 28.6832 3.99495 28.6832 3.28838V1.77937C28.6832 1.07279 28.1098 0.5 27.4025 0.5Z" fill="#00C4B3"/>
    <path d="M23.1458 17.7305H20.4695V7.67187C20.4695 6.68774 19.669 5.88403 18.6798 5.88403H16.5535C15.4329 5.88403 14.7638 6.55242 14.7638 7.67187L14.7515 20.1417C14.7515 21.0274 15.0963 21.8557 15.7202 22.4831C16.3441 23.1105 17.1774 23.4549 18.064 23.4549H23.1417C23.7943 23.4549 24.3239 22.9259 24.3239 22.2739V18.9074C24.3239 18.2554 23.7943 17.7264 23.1417 17.7264L23.1458 17.7305Z" fill="#FF5100"/>
    <path d="M27.9732 5.93335H22.8956C22.2429 5.93335 21.7134 6.46232 21.7134 7.11431V10.4809C21.7134 11.1329 22.2429 11.6618 22.8956 11.6618H25.5719V21.7205C25.5719 22.7046 26.3723 23.5083 27.3616 23.5083H29.4879C30.6085 23.5083 31.2776 22.8399 31.2776 21.7205L31.2899 9.2507C31.2899 8.36498 30.9451 7.53667 30.3212 6.90928C29.6972 6.2819 28.8639 5.93745 27.9773 5.93745L27.9732 5.93335Z" fill="#FF5100"/>
    <path d="M39.1177 5.90454H34.5531C33.4161 5.90454 32.7634 6.55653 32.7634 7.69238V21.6835C32.7634 22.8193 33.4161 23.4713 34.5531 23.4713H36.6794C37.8164 23.4713 38.4691 22.8193 38.4691 21.6835V18.7885H38.7564C43.2594 18.7885 45.6402 16.5455 45.6402 12.2973C45.6402 8.04913 43.3867 5.90454 39.1177 5.90454ZM38.4691 10.4192H39.1177C40.0741 10.4192 40.1767 11.8339 40.1767 12.4449C40.1767 13.0559 40.0741 14.3968 39.1177 14.3968H38.4691V10.4192Z" fill="#00C4B3"/>
    <path d="M7.11254 5.88843H2.548C1.56284 5.88843 0.758301 6.68804 0.758301 7.67627V21.6715C0.758301 22.7909 1.42738 23.4593 2.548 23.4593H4.67428C5.7949 23.4593 6.46398 22.7909 6.46398 21.6715V18.7765C7.0838 18.7765 8.43839 18.7765 9.6452 18.7724C10.3266 18.7724 10.8766 18.2147 10.8766 17.534V15.6231C10.8766 14.9424 10.3225 14.3848 9.63699 14.3848H6.45987V10.4072H7.11254C7.56407 10.4072 7.88014 10.7189 8.04843 11.3299C8.188 11.8301 8.63542 12.1787 9.14031 12.1787H12.42C12.7484 12.1787 13.0604 12.0352 13.2738 11.7891C13.4873 11.5431 13.5858 11.215 13.5407 10.8911C13.0768 7.61886 10.852 5.88843 7.11254 5.88843Z" fill="#00C4B3"/>
    <path d="M59.5063 18.8745L60.6269 18.0995C60.9143 17.8986 60.9881 17.505 60.787 17.2179L58.8947 14.4993C58.6689 14.1753 58.9029 13.7366 59.2929 13.7366H62.6095C62.9584 13.7366 63.2417 13.4536 63.2417 13.1051V11.7396C63.2417 11.391 62.9584 11.1081 62.6095 11.1081H59.2929C58.8988 11.1081 58.6689 10.6693 58.8947 10.3454L60.787 7.62673C60.9881 7.33969 60.9143 6.94194 60.6269 6.74511L59.5063 5.97011C59.219 5.76918 58.8208 5.84299 58.6238 6.13003L55.8489 10.124L53.0741 6.13003C52.8729 5.84299 52.4789 5.76918 52.1916 5.97011L51.0709 6.74511C50.7836 6.94604 50.7097 7.33969 50.9109 7.62673L52.8032 10.3454C53.0289 10.6693 52.795 11.1081 52.405 11.1081H49.0883C48.7394 11.1081 48.4562 11.391 48.4562 11.7396V13.1051C48.4562 13.4536 48.7394 13.7366 49.0883 13.7366H52.405C52.7991 13.7366 53.0289 14.1753 52.8032 14.4993L50.9109 17.2179C50.7097 17.505 50.7836 17.9027 51.0709 18.0995L52.1916 18.8745C52.4789 19.0755 52.8771 19.0017 53.0741 18.7146L55.8489 14.7207L58.6238 18.7146C58.8249 19.0017 59.219 19.0755 59.5063 18.8745Z" fill="#FF5100"/>
    </g>
    <defs>
    <clipPath id="clip0_587_7546">
    <rect width="62.4833" height="23" fill="white" transform="translate(0.758301 0.5)"/>
    </clipPath>
    </defs>
    </svg>
    