<svg width="71" height="14" viewBox="0 0 71 14" fill="none" xmlns="http://www.w3.org/2000/svg">
<g id="Invest" clip-path="url(#clip0_1981_32478)">
<path id="Vector" d="M25.8436 1.36621H24.5391C24.1916 1.36621 23.8896 1.60566 23.8114 1.94307L22.1376 9.12118L20.4639 1.94307C20.3856 1.60566 20.0836 1.36621 19.7361 1.36621H18.4317C17.9459 1.36621 17.5893 1.81972 17.7058 2.28955L20.1964 12.3901C20.3219 12.9071 20.7859 13.2717 21.3189 13.2717H22.9545C23.4875 13.2717 23.9515 12.9071 24.077 12.3901L26.5676 2.28955C26.6841 1.81972 26.3275 1.36621 25.8417 1.36621H25.8436Z" fill="#00C4B3"/>
<path id="Vector_2" d="M67.957 9.69783L68.6884 9.19171C68.8758 9.0611 68.9231 8.80351 68.7921 8.61666L67.5568 6.84254C67.4112 6.63212 67.5604 6.3455 67.817 6.3455H69.9837C70.213 6.3455 70.3986 6.16047 70.3986 5.9319V5.04303C70.3986 4.81446 70.213 4.62943 69.9837 4.62943H67.817C67.5604 4.62943 67.4094 4.34281 67.5568 4.13239L68.7921 2.35826C68.9231 2.17142 68.8758 1.91201 68.6884 1.78322L67.957 1.2771C67.7696 1.14649 67.5095 1.19366 67.3803 1.3805L65.5665 3.98545L63.7526 1.3805C63.6216 1.19366 63.3633 1.14649 63.1759 1.2771L62.4445 1.78322C62.2571 1.91383 62.2098 2.17142 62.3408 2.35826L63.5761 4.13239C63.7217 4.34281 63.5725 4.62943 63.316 4.62943H61.1492C60.9199 4.62943 60.7344 4.81446 60.7344 5.04303V5.9319C60.7344 6.16047 60.9199 6.3455 61.1492 6.3455H63.316C63.5725 6.3455 63.7235 6.63212 63.5761 6.84254L62.3408 8.61666C62.2098 8.80351 62.2571 9.06292 62.4445 9.19171L63.1759 9.69783C63.3633 9.82844 63.6234 9.78127 63.7526 9.59443L65.5665 6.98948L67.3803 9.59443C67.5113 9.78127 67.7696 9.82844 67.957 9.69783Z" fill="#FF5100"/>
<path id="Vector_3" d="M35.686 10.7534H30.8976V8.41877H34.8855C35.1748 8.41877 35.4222 8.21197 35.4713 7.92898V6.73898C35.535 6.37617 35.2548 6.04239 34.8855 6.04239H30.8976V3.60071H35.686C36.0553 3.60071 36.3337 3.26511 36.2718 2.90231V1.71412C36.219 1.4275 35.9734 1.2207 35.686 1.2207H29.4803C28.8508 1.2207 28.3414 1.67602 28.2414 2.2547C28.2177 2.39438 28.2177 11.9616 28.2414 12.1049C28.3469 12.6799 28.8508 13.1352 29.4803 13.1352H35.686C35.9734 13.1352 36.219 12.9248 36.2718 12.6418V11.4536C36.3337 11.089 36.0553 10.7552 35.686 10.7552V10.7534Z" fill="#00C4B3"/>
<path id="Vector_4" d="M58.5489 1.20801H49.7344C49.4851 1.20801 49.2832 1.40936 49.2832 1.65789V3.12906C49.2832 3.37759 49.4851 3.57894 49.7344 3.57894H52.7781V12.6001C52.7781 12.894 53.0164 13.1316 53.3112 13.1316H54.9285C55.2233 13.1316 55.4616 12.894 55.4616 12.6001V3.58076H58.5526C58.8018 3.58076 59.0038 3.3794 59.0038 3.13088V1.65789C59.0038 1.40936 58.8018 1.20801 58.5526 1.20801H58.5489Z" fill="#00C4B3"/>
<path id="Vector_5" d="M2.45061 1.20801H0.231052C0.103446 1.20801 0 1.31115 0 1.43839V12.903C0 13.0303 0.103446 13.1334 0.231052 13.1334H2.45061C2.57822 13.1334 2.68166 13.0303 2.68166 12.903V1.43839C2.68166 1.31115 2.57822 1.20801 2.45061 1.20801Z" fill="#FF5100"/>
<path id="Vector_6" d="M47.5236 7.76942C48.6406 9.16804 47.8729 11.3177 46.5521 12.2809C46.0736 12.631 45.475 12.8904 44.7564 13.0628C44.0341 13.2333 40.9031 13.0609 40.401 12.8523C39.8988 12.6437 39.5022 12.3644 39.2057 12.0215C38.9091 11.6768 38.7181 11.2723 38.6362 10.8007C38.5744 10.4705 38.5671 10.124 38.6144 9.74853C38.6508 9.46735 38.9037 9.26237 39.1911 9.28051L40.9449 9.38935C41.2087 9.40568 41.418 9.60522 41.4489 9.861C41.4634 10.0206 41.5235 10.202 41.6763 10.3834C41.7891 10.5159 41.9547 10.6265 42.1712 10.7154C42.3822 10.8043 43.7485 10.8841 44.0214 10.8242C44.2943 10.7589 44.5126 10.6719 44.6818 10.563C44.8474 10.4487 44.9711 10.3163 45.0475 10.1676C45.1239 10.0243 45.1657 9.87732 45.1748 9.72857C45.2203 8.98301 44.2397 8.65285 43.6703 8.49685C42.6023 8.20298 41.5253 7.86194 40.5174 7.39936C39.404 6.8878 38.236 5.99712 38.3197 4.64929C38.3579 4.04159 38.5016 3.49013 38.7454 2.98764C38.9928 2.48879 39.3512 2.06067 39.8297 1.71057C40.3082 1.36046 40.9067 1.10105 41.6254 0.928721C42.3476 0.758202 45.4787 0.930535 45.9808 1.13915C46.4829 1.34776 46.8795 1.62712 47.1761 1.96997C47.4726 2.31464 47.6637 2.71917 47.7455 3.19081C47.8074 3.52097 47.8147 3.86745 47.7674 4.24295C47.731 4.52413 47.4781 4.72911 47.1906 4.71097L45.4368 4.60213C45.173 4.5858 44.9638 4.38626 44.9329 4.13048C44.9183 3.97085 44.8583 3.78944 44.7055 3.60804C44.5927 3.47562 44.4271 3.36496 44.2106 3.27607C43.9996 3.18719 42.6333 3.10737 42.3604 3.16723C42.0875 3.23254 41.8692 3.31961 41.7 3.42845C41.5344 3.54274 41.4107 3.67516 41.3343 3.82391C41.1269 4.21755 41.196 4.6366 41.5308 4.93954C42.0584 5.41481 42.8661 5.52366 43.5229 5.72138C44.1833 5.92093 44.8255 6.17852 45.4641 6.43611C45.8553 6.59393 46.2464 6.75175 46.6048 6.97306C46.9541 7.18893 47.2725 7.4556 47.5236 7.76761V7.76942Z" fill="#00C4B3"/>
<path id="Vector_7" d="M5.49219 12.7795V1.7375C5.49219 1.44363 5.73052 1.20599 6.02524 1.20599H7.75905C8.01921 1.20599 8.25936 1.34385 8.39035 1.56698L12.5493 8.60904V2.78601H12.1472C12.0508 2.78601 11.9999 2.67898 12.0617 2.60823L13.6136 0.854067C13.7628 0.685363 14.0247 0.685363 14.1739 0.854067L15.7258 2.60823C15.7877 2.67898 15.7349 2.78601 15.6403 2.78601H15.2346V3.68214H15.2382V4.35877H15.2346V12.6035C15.2346 12.8974 14.9963 13.135 14.7015 13.135H12.9623C12.7057 13.135 12.4674 13.0008 12.3346 12.7813L8.17749 5.92609V12.7813C8.17749 12.9772 8.01921 13.135 7.82272 13.135H5.84695C5.65047 13.135 5.49219 12.9772 5.49219 12.7813V12.7795Z" fill="#FF5100"/>
</g>
<defs>
<clipPath id="clip0_1981_32478">
<rect width="70.4" height="12.544" fill="white" transform="translate(0 0.727539)"/>
</clipPath>
</defs>
</svg>
