<svg width="65" height="35" viewBox="0 0 65 35" fill="none" xmlns="http://www.w3.org/2000/svg">
<g clip-path="url(#clip0_4104_3747)">
<path d="M42.1512 17.6322V13.8711C37.8832 13.8711 34.4233 17.2637 34.4233 21.4854L34.4199 28.389C34.4199 28.8333 34.7831 29.1919 35.2329 29.1919H37.4168C37.8666 29.1919 38.2297 28.8333 38.2297 28.389L38.2331 21.5019C38.2331 21.5019 38.2264 21.4904 38.2264 21.4854C38.2264 19.34 39.9872 17.6322 42.1528 17.6322" fill="#FF5100"/>
<path d="M32.7023 21.2873C32.554 16.8631 28.6143 13.3801 23.9865 13.928C20.4616 14.3459 17.6163 17.1955 17.2298 20.6818C16.7167 25.31 20.3716 29.1863 24.946 29.1863C26.412 29.1764 27.4998 28.4804 28.1578 27.875C28.4293 27.6232 28.8725 27.819 28.8708 28.1876L28.8658 29.1928H32.7023V21.2906V21.2873ZM24.9344 25.4005C22.7488 25.4005 20.9713 23.668 20.9713 21.5308C20.9713 19.3936 22.7471 17.6677 24.9344 17.6677C27.1216 17.6677 28.8958 19.3985 28.8958 21.5308C28.8958 23.6631 27.125 25.4005 24.9344 25.4005Z" fill="#FF5100"/>
<path d="M15.4941 28.9315H4.83098C2.16728 28.9315 0 26.791 0 24.1602V18.6287C0 15.9979 2.16728 13.8574 4.83098 13.8574H15.4941V17.4984H4.83098C4.20129 17.4984 3.6882 18.0052 3.6882 18.6287V24.1602C3.6882 24.7837 4.20129 25.2888 4.83098 25.2888H15.4941V28.9315Z" fill="#FF5100"/>
<path d="M64.9351 21.54C64.9351 25.0823 62.5229 28.0537 59.2196 28.9142C58.5932 29.0787 57.9319 29.1659 57.2489 29.1659H47.8651L45.5912 29.1675C45.0598 28.5078 44.7383 27.5469 44.7383 26.5104V26.211C44.7383 26.2011 44.7383 26.1879 44.7399 26.1781V16.9382L44.7416 16.9267C44.7399 16.902 44.7383 16.8806 44.7383 16.8559V15.826L46.0243 13.8944H57.2489C61.5168 13.8944 64.9351 17.3248 64.9351 21.54Z" fill="#FF5100"/>
<path d="M59.2196 22.75V31.8402C59.2262 34.0547 57.647 35.5766 56.176 34.7918L46.3525 29.8165C46.0676 29.6618 45.8111 29.4397 45.5912 29.1699C45.0598 28.5102 44.7383 27.5493 44.7383 26.5128V15.83C44.7383 14.7639 45.3347 13.9577 46.0243 13.8984H46.1892C46.3275 13.91 46.4674 13.9511 46.6074 14.0268L57.7719 19.8083C58.6315 20.2788 59.2196 21.4552 59.2196 22.7517" fill="#02C0B0"/>
<path d="M49.9182 27.6019V28.0248C49.9165 28.1317 49.8465 28.186 49.7616 28.1416L48.9636 27.7319C48.8687 27.6825 48.8137 27.7895 48.867 27.9195L49.3184 28.9955C49.3651 29.1123 49.3484 29.2258 49.2801 29.2521L49.0103 29.3558C48.9403 29.3821 48.8453 29.3114 48.7954 29.1946L48.1307 27.6134L47.461 28.5085C47.411 28.5743 47.3161 28.548 47.2461 28.4509L46.9779 28.0708C46.9096 27.9738 46.893 27.8421 46.9413 27.7747L47.3977 27.1659C47.4527 27.0935 47.3977 26.929 47.3028 26.8813L46.5032 26.47C46.4199 26.4272 46.3516 26.3022 46.3516 26.1952V25.7724C46.3532 25.6621 46.4232 25.6111 46.5065 25.6539L47.3061 26.0652C47.3994 26.1129 47.456 26.0044 47.4027 25.876L46.9513 24.8C46.9046 24.6865 46.9213 24.573 46.9896 24.5466L47.2595 24.443C47.3294 24.4167 47.4244 24.4874 47.4727 24.6026L48.1357 26.1821L48.8087 25.2887C48.8587 25.2261 48.9536 25.2525 49.0236 25.3495L49.2918 25.7296C49.3601 25.8267 49.3768 25.9566 49.3284 26.0208L48.872 26.6296C48.817 26.702 48.872 26.8681 48.967 26.9175L49.7632 27.3272C49.8482 27.3716 49.9182 27.4917 49.9182 27.6019Z" fill="white"/>
<path d="M57.5461 25.9338L46.2849 20.1473C46.1333 20.07 46.0117 19.8758 46.0117 19.713L46.015 18.841C46.015 18.6797 46.1383 18.6106 46.2899 18.688L57.5511 24.4744C57.7027 24.5517 57.8243 24.7459 57.8243 24.9071L57.821 25.7791C57.821 25.9403 57.6977 26.0094 57.5461 25.9321" fill="white"/>
<path d="M8.84246 5.20401C8.55093 5.72392 8.10282 6.14182 7.49978 6.46101C6.89507 6.78019 6.1471 6.93978 5.25087 6.93978H3.59668V10.8259H0.927979V0H5.25254C6.12711 0 6.86509 0.14972 7.46979 0.447516C8.07283 0.745311 8.52594 1.15663 8.82746 1.68147C9.12898 2.20632 9.28057 2.80684 9.28057 3.48634C9.28057 4.11319 9.13398 4.68575 8.84412 5.20566M6.18875 4.48667C6.43863 4.24975 6.56357 3.91576 6.56357 3.4847C6.56357 3.05364 6.43863 2.71964 6.18875 2.48272C5.93887 2.2458 5.55906 2.12734 5.0493 2.12734H3.59668V4.84041H5.0493C5.55906 4.84041 5.93887 4.72195 6.18875 4.48503" fill="#FF5100"/>
<path d="M16.2589 10.8243L13.98 6.73741H13.3403V10.8243H10.6699V0H15.1511C16.014 0 16.752 0.14972 17.36 0.447516C17.968 0.745311 18.4245 1.15498 18.726 1.67325C19.0275 2.19316 19.1791 2.77065 19.1791 3.40737C19.1791 4.12636 18.9742 4.76966 18.5627 5.33399C18.1513 5.89997 17.5449 6.29977 16.7436 6.53669L19.2724 10.8226H16.2589V10.8243ZM13.3386 4.87331H14.9928C15.4826 4.87331 15.8491 4.75485 16.0939 4.51793C16.3388 4.28101 16.4604 3.94702 16.4604 3.51596C16.4604 3.0849 16.3372 2.78052 16.0939 2.54524C15.8491 2.30832 15.4826 2.18986 14.9928 2.18986H13.3386V4.87331Z" fill="#FF5100"/>
<path d="M23.518 2.11254V4.3024H27.0929V6.33761H23.518V8.71175H27.561V10.8243H20.8477V0H27.561V2.11254H23.518Z" fill="#FF5100"/>
<path d="M37.2094 5.20401C36.9179 5.72392 36.4698 6.14182 35.8667 6.46101C35.262 6.78019 34.514 6.93978 33.6178 6.93978H31.9636V10.8259H29.2949V0H33.6195C34.4941 0 35.232 0.14972 35.8367 0.447516C36.4398 0.745311 36.8929 1.15663 37.1944 1.68147C37.4959 2.20632 37.6475 2.80684 37.6475 3.48634C37.6475 4.11319 37.5009 4.68575 37.2111 5.20566M34.5557 4.48667C34.8056 4.24975 34.9305 3.91576 34.9305 3.4847C34.9305 3.05364 34.8056 2.71964 34.5557 2.48272C34.3058 2.2458 33.926 2.12734 33.4162 2.12734H31.9636V4.84041H33.4162C33.926 4.84041 34.3058 4.72195 34.5557 4.48503" fill="#FF5100"/>
<path d="M45.86 8.91247H41.7703L41.114 10.8243H38.3203L42.285 0H45.3769L49.3416 10.8243H46.5163L45.86 8.91247ZM45.1736 6.87726L43.816 2.91379L42.4733 6.87726H45.1736Z" fill="#FF5100"/>
<path d="M53.2133 0H50.543V10.8243H53.2133V0Z" fill="#FF5100"/>
<path d="M62.283 0.677855C63.1459 1.13031 63.8156 1.76538 64.2887 2.58144C64.7618 3.3975 64.9983 4.34189 64.9983 5.41132C64.9983 6.48075 64.7618 7.41033 64.2887 8.23297C63.8156 9.05561 63.1442 9.69233 62.2747 10.1448C61.4051 10.5972 60.3989 10.8226 59.2528 10.8226H55.1465V0H59.2528C60.4073 0 61.4168 0.225403 62.2813 0.677855M61.4401 7.72458C62.0015 7.17999 62.283 6.40836 62.283 5.41132C62.283 4.41428 62.0015 3.63771 61.4401 3.08325C60.8787 2.52879 60.0924 2.25074 59.0829 2.25074H57.8185V8.54228H59.0829C60.0924 8.54228 60.8787 8.27081 61.4401 7.72458Z" fill="#FF5100"/>
</g>
<defs>
<clipPath id="clip0_4104_3747">
<rect width="65" height="35" fill="white"/>
</clipPath>
</defs>
</svg>
