<svg width="230" height="24" viewBox="0 0 230 24" fill="none" xmlns="http://www.w3.org/2000/svg">
    <path d="M225.177 17.5894L226.62 16.5709C226.992 16.3104 227.084 15.7895 226.827 15.4163L224.388 11.8553C224.1 11.4316 224.395 10.8563 224.901 10.8563H229.175C229.627 10.8563 229.991 10.4831 229.991 10.0282V8.23997C229.991 7.78125 229.623 7.41193 229.175 7.41193H224.901C224.395 7.41193 224.097 6.83658 224.388 6.41284L226.827 2.85189C227.084 2.4748 226.992 1.95776 226.62 1.6973L225.177 0.678774C224.805 0.418311 224.296 0.511611 224.039 0.888699L220.458 6.12128L216.878 0.888699C216.621 0.511611 216.108 0.418311 215.74 0.678774L214.296 1.6973C213.925 1.95776 213.833 2.47869 214.09 2.85189L216.529 6.41284C216.816 6.83658 216.521 7.41193 216.016 7.41193H211.742C211.29 7.41193 210.926 7.78513 210.926 8.23997V10.0282C210.926 10.4869 211.294 10.8563 211.742 10.8563H216.016C216.521 10.8563 216.82 11.4316 216.529 11.8553L214.09 15.4163C213.833 15.7934 213.925 16.3104 214.296 16.5709L215.74 17.5894C216.112 17.8499 216.621 17.7566 216.878 17.3795L220.458 12.1469L224.039 17.3795C224.296 17.7566 224.809 17.8499 225.177 17.5894Z" fill="#FF5100"/>
    <path d="M115.062 22.4762L122.315 1.08713C122.43 0.76835 122.69 0.523438 123.093 0.523438H129.802C130.178 0.523438 130.476 0.756688 130.614 1.08713L137.833 22.449C137.875 22.5811 137.898 22.69 137.898 22.7794C137.898 23.1759 137.649 23.4714 137.117 23.4753H132.299C131.652 23.4597 131.491 22.6433 131.491 22.6433L130.323 19.0902C130.04 18.0172 129.071 17.5157 127.6 17.5429H125.298C124.016 17.5818 122.951 17.8928 122.606 19.0746L121.442 22.6433C121.277 23.0826 121.201 23.4753 120.695 23.4753H115.805C115.502 23.4753 115.291 23.3275 115.173 23.1837C115.054 23.0399 114.997 22.9038 114.997 22.7716C114.997 22.6861 115.02 22.585 115.062 22.4762ZM125.754 14.6895L127.317 14.6778C127.964 14.6351 128.642 14.2658 128.611 13.5621C128.603 13.4105 128.581 13.2434 128.515 13.0684L127.121 7.40821C126.991 7.03501 126.869 6.79787 126.75 6.70068C126.631 6.6035 126.528 6.55296 126.444 6.55296C126.378 6.55296 126.287 6.6035 126.168 6.70068C126.049 6.79787 125.927 7.03501 125.796 7.40821L124.402 13.0684C124.337 13.2434 124.307 13.4105 124.307 13.5621C124.307 14.2619 124.659 14.6467 125.762 14.6895H125.754Z" fill="#00C4B3"/>
    <path d="M43.672 1.36889V22.5519C43.672 23.1039 43.3618 23.5005 42.7605 23.5005L38.3908 23.4888C37.8317 23.4927 37.5751 23.1234 37.5751 22.6335V22.4392L37.5828 16.1958C37.5828 14.9246 36.7594 14.256 35.0513 14.186H31.3327C29.6246 14.256 28.8013 14.9246 28.8013 16.1958L28.8089 22.4392V22.6335C28.8089 23.1234 28.537 23.4927 27.997 23.4927L23.6541 23.5005C23.0376 23.5005 22.7427 23.1039 22.7427 22.5519V1.36889C22.8116 0.871285 23.1142 0.521409 23.6541 0.513634L27.9626 0.505859C28.2383 0.505859 28.4528 0.657472 28.5945 0.81686C28.7362 0.984022 28.8051 1.16285 28.8051 1.36889V7.65498C28.8051 8.94563 29.594 9.56763 31.3633 9.6104H35.0283C36.7977 9.56763 37.5866 8.94563 37.5866 7.65498V1.37666C37.5828 1.17062 37.6517 0.995685 37.7934 0.824635C37.9351 0.665247 38.1457 0.517522 38.4253 0.513634H42.7643C43.3043 0.521409 43.6069 0.871285 43.6758 1.37277L43.672 1.36889Z" fill="#00C4B3"/>
    <path d="M94.5801 1.28916C94.6031 0.849875 94.9056 0.589413 95.4878 0.5H99.934C100.214 0.54665 100.432 0.651613 100.581 0.814888C100.731 0.978163 100.811 1.28139 100.777 1.52241L99.3979 15.8829C99.2753 17.1618 100.267 18.2659 101.535 18.2659L112.254 18.2776C112.729 18.2776 113.116 18.6546 113.143 19.1328C113.143 19.1328 113.139 22.7521 113.139 22.7715C113.139 23.2108 112.89 23.4518 112.392 23.4946H94.7448C94.1397 23.4479 93.8372 23.1525 93.8372 22.6044L94.5839 1.28528L94.5801 1.28916Z" fill="#00C4B3"/>
    <path d="M140.637 22.4859L140.622 1.36118C140.664 0.84025 140.936 0.560349 141.433 0.517587H150.717C157.154 0.513699 160.379 1.80435 160.379 4.89881C160.379 6.13115 159.828 7.25463 158.725 8.25761C157.622 9.26447 156.109 9.96422 154.186 10.353C153.972 10.4191 153.834 10.4929 153.78 10.5785C153.727 10.664 153.7 10.7417 153.7 10.8078C153.7 10.8506 153.727 10.9167 153.78 11.0022C153.834 11.0877 153.957 11.1655 154.152 11.2277C156.549 11.7058 158.376 12.5067 159.632 13.6301C160.885 14.7575 161.513 16.0326 161.513 17.4632C161.513 18.5012 161.195 19.4186 160.555 20.2078C159.919 20.997 159.058 21.619 157.978 22.0738C156.898 22.5286 155.714 22.8707 154.428 23.0962C153.141 23.3217 151.762 23.4383 150.295 23.4383L141.51 23.4578C141.273 23.4344 141.066 23.3334 140.893 23.1506C140.721 22.9679 140.633 22.7425 140.633 22.4859H140.637ZM146.764 8.56861C146.787 9.17506 147.098 9.47829 147.703 9.47829C147.787 9.47829 147.887 9.46662 147.994 9.44719C151.881 9.01567 153.826 8.05157 153.826 6.55877C153.826 5.30311 152.635 4.67722 150.261 4.67722L147.894 4.74331C147.159 4.78607 146.78 5.11262 146.761 5.71518V8.5725L146.764 8.56861ZM146.764 17.1095C146.787 17.9103 147.251 18.334 148.158 18.3768L150.881 18.4429C152.026 18.4429 152.949 18.2096 153.654 17.747C154.355 17.2805 154.707 16.6585 154.707 15.881C154.707 14.1277 152.482 13.012 148.028 12.5378C147.898 12.5144 147.791 12.5067 147.703 12.5067C147.121 12.5067 146.807 12.8643 146.764 13.5796V17.1211V17.1095Z" fill="#00C4B3"/>
    <path d="M162.653 22.4762L169.91 1.08322C170.025 0.764444 170.285 0.519531 170.687 0.519531H177.397C177.772 0.519531 178.071 0.752782 178.209 1.08322L185.428 22.4451C185.47 22.5772 185.493 22.6861 185.493 22.7755C185.493 23.172 185.244 23.4675 184.712 23.4714H179.894C179.247 23.4558 179.086 22.6394 179.086 22.6394L177.918 19.0863C177.634 18.0133 176.665 17.5118 175.195 17.539H172.893C171.61 17.5779 170.546 17.8889 170.201 19.0707L169.037 22.6394C168.872 23.0787 168.795 23.4714 168.29 23.4714H163.399C163.097 23.4714 162.886 23.3236 162.767 23.1798C162.649 23.036 162.591 22.8999 162.591 22.7677C162.591 22.6822 162.614 22.5811 162.656 22.4723L162.653 22.4762ZM173.345 14.6895L174.908 14.6778C175.555 14.6351 176.233 14.2657 176.202 13.5621C176.194 13.4105 176.171 13.2433 176.106 13.0684L174.712 7.40819C174.582 7.03499 174.46 6.79785 174.341 6.70066C174.222 6.60348 174.119 6.55294 174.034 6.55294C173.969 6.55294 173.877 6.60348 173.759 6.70066C173.64 6.79785 173.517 7.03499 173.387 7.40819L171.993 13.0684C171.928 13.2433 171.897 13.4105 171.897 13.5621C171.897 14.2619 172.25 14.6467 173.353 14.6895H173.345Z" fill="#00C4B3"/>
    <path d="M46.2375 22.4703L53.4909 1.08127C53.6058 0.762491 53.8662 0.517578 54.2683 0.517578H60.978C61.3533 0.517578 61.652 0.750828 61.7899 1.08127L69.0088 22.4431C69.051 22.5753 69.0739 22.6841 69.0739 22.7735C69.0739 23.1701 68.825 23.4655 68.2927 23.4694H63.4749C62.8277 23.4539 62.6669 22.6375 62.6669 22.6375L61.4988 19.0843C61.2154 18.0114 60.2465 17.5099 58.7759 17.5371H56.4742C55.1913 17.576 54.1266 17.887 53.782 19.0688L52.6177 22.6375C52.4531 23.0768 52.3765 23.4694 51.871 23.4694H46.9804C46.6779 23.4694 46.4672 23.3217 46.3485 23.1778C46.2298 23.034 46.1724 22.8979 46.1724 22.7658C46.1724 22.6802 46.1953 22.5792 46.2375 22.4703ZM56.93 14.6836L58.4925 14.672C59.1397 14.6292 59.8176 14.2599 59.7869 13.5563C59.7793 13.4047 59.7563 13.2375 59.6912 13.0626L58.2972 7.40235C58.167 7.02915 58.0444 6.79201 57.9257 6.69482C57.807 6.59764 57.7036 6.5471 57.6193 6.5471C57.5542 6.5471 57.4623 6.59764 57.3436 6.69482C57.2249 6.79201 57.1023 7.02915 56.9721 7.40235L55.5781 13.0626C55.513 13.2375 55.4824 13.4047 55.4824 13.5563C55.4824 14.256 55.8347 14.6409 56.9376 14.6836H56.93Z" fill="#00C4B3"/>
    <path d="M86.3179 0.728516H86.3064C86.3562 0.736291 86.4098 0.740178 86.4596 0.744066C86.4098 0.740178 86.3638 0.728516 86.3141 0.728516H86.3179Z" fill="#FF5100"/>
    <path d="M86.5212 0.75C86.6783 0.769438 86.8315 0.792763 86.9808 0.8122C86.8353 0.784988 86.6783 0.76555 86.5212 0.75Z" fill="#FF5100"/>
    <path d="M86.4646 0.742188C86.4837 0.742188 86.5029 0.746075 86.5259 0.749963C86.5067 0.749963 86.4876 0.746075 86.4646 0.742188Z" fill="#FF5100"/>
    <path d="M89.7806 18.1436L78.8928 18.1513C78.2111 18.163 77.8779 17.5332 77.8779 17.0045C77.8779 16.4758 78.1843 15.986 78.8162 15.504C79.4481 15.0219 80.237 14.5865 81.183 14.1978C82.1366 13.809 83.1629 13.3464 84.285 12.7905C85.3995 12.2462 86.422 11.6786 87.3756 11.08C88.3215 10.4891 89.1181 9.71157 89.7577 8.75913C90.3972 7.79892 90.7112 6.75318 90.7112 5.60637C90.7112 4.45955 90.1636 2.6091 88.6662 1.53615C88.199 1.20182 87.6437 0.945247 86.9811 0.81696C86.8318 0.793635 86.6786 0.774197 86.5216 0.75476C86.5024 0.75476 86.4833 0.750872 86.4603 0.746985C86.4105 0.73921 86.3569 0.735322 86.3071 0.731434C81.5966 0.187184 73.9333 0.883047 73.9333 0.883047C73.267 0.964685 72.4972 1.69165 72.4359 2.37974L72.21 5.40422C72.1717 6.32944 72.7193 6.72986 73.6882 6.26335C75.335 5.36923 78.9962 4.79388 80.103 4.79388C81.2098 4.79388 82.2055 4.7239 82.9485 5.066C83.6914 5.4081 84.0591 5.90959 84.0591 6.57436C84.0591 7.16526 83.7335 7.74061 83.0863 8.28486C82.4391 8.82911 81.631 9.32282 80.6583 9.73878C79.6855 10.1625 78.6362 10.664 77.495 11.2471C76.3652 11.8303 75.3044 12.4328 74.324 13.0432C73.3359 13.6613 72.5087 14.4582 71.8462 15.4223C71.1721 16.3942 70.8121 17.4671 70.77 18.6217C70.7355 19.3059 70.7087 20.4061 70.7087 21.9145C70.7087 22.8669 71.2066 23.3956 72.1985 23.4889H89.8994C90.4164 23.4422 90.6806 23.1001 90.6806 22.4626L90.6691 19.0805C90.6653 18.5634 90.267 18.1513 89.7768 18.1513L89.7806 18.1436Z" fill="#FF5100"/>
    <path d="M4.40122 0.726562H4.41271C4.36292 0.734338 4.30931 0.738225 4.25952 0.742113C4.30931 0.738225 4.35526 0.726562 4.40505 0.726562H4.40122Z" fill="#FF5100"/>
    <path d="M4.19955 0.748047C4.04254 0.767484 3.88935 0.790809 3.73999 0.810247C3.88552 0.783034 4.04254 0.763597 4.19955 0.748047Z" fill="#FF5100"/>
    <path d="M4.25634 0.740234C4.23719 0.740234 4.21805 0.744122 4.19507 0.748009C4.21422 0.748009 4.23337 0.744122 4.25634 0.740234Z" fill="#FF5100"/>
    <path d="M0.940138 18.1416L11.828 18.1494C12.5097 18.1611 12.8428 17.5313 12.8428 17.0026C12.8428 16.4739 12.5365 15.9841 11.9046 15.502C11.2727 15.02 10.4837 14.5846 9.53781 14.1958C8.58421 13.8071 7.55785 13.3444 6.43575 12.7885C5.32131 12.2443 4.29878 11.6767 3.34519 11.078C2.39925 10.4871 1.60268 9.70962 0.963116 8.75718C0.323557 7.79697 0.00952148 6.75123 0.00952148 5.60441C0.00952148 4.4576 0.557168 2.60715 2.05458 1.5342C2.5218 1.19987 3.07711 0.943294 3.73965 0.815006C3.889 0.791681 4.04219 0.772244 4.19921 0.752806C4.21836 0.752806 4.23751 0.748919 4.26049 0.745031C4.31027 0.737256 4.36389 0.733369 4.41367 0.729481C9.1242 0.185231 16.7874 0.881094 16.7874 0.881094C17.4538 0.962732 18.2236 1.6897 18.2848 2.37778L18.5108 5.40226C18.5491 6.32749 18.0014 6.7279 17.0325 6.2614C15.3858 5.36728 11.7246 4.79192 10.6178 4.79192C9.511 4.79192 8.51528 4.72195 7.77232 5.06405C7.02936 5.40615 6.66171 5.90764 6.66171 6.5724C6.66171 7.1633 6.98723 7.73865 7.63445 8.2829C8.28167 8.82716 9.08973 9.32087 10.0625 9.73683C11.0352 10.1606 12.0846 10.6621 13.2258 11.2452C14.3556 11.8283 15.4164 12.4309 16.3968 13.0412C17.3849 13.6593 18.2121 14.4563 18.8746 15.4204C19.5486 16.3922 19.9086 17.4652 19.9508 18.6198C19.9852 19.304 20.012 20.4041 20.012 21.9125C20.012 22.8649 19.5142 23.3936 18.5223 23.4869H0.817588C0.300578 23.4403 0.0363294 23.0982 0.0363294 22.4606L0.0478185 19.0785C0.0516482 18.5615 0.449937 18.1494 0.940138 18.1494V18.1416Z" fill="#FF5100"/>
    <path d="M187.94 5.85313L198.828 5.84536C199.51 5.83369 199.843 6.46347 199.843 6.99217C199.843 7.52087 199.536 8.0107 198.905 8.49275C198.273 8.9748 197.484 9.4102 196.538 9.79895C195.584 10.1877 194.558 10.6503 193.436 11.2062C192.321 11.7505 191.299 12.3181 190.345 12.9167C189.399 13.5076 188.603 14.2851 187.963 15.2376C187.324 16.1978 187.01 17.2435 187.01 18.3903C187.01 19.5372 187.557 21.3876 189.055 22.4606C189.522 22.7949 190.077 23.0515 190.74 23.1797C190.889 23.2031 191.042 23.2225 191.199 23.2419C191.218 23.2419 191.238 23.2458 191.26 23.2497C191.31 23.2575 191.364 23.2614 191.414 23.2653C196.124 23.8095 203.787 23.1137 203.787 23.1137C204.454 23.032 205.224 22.3051 205.285 21.617L205.511 18.5925C205.549 17.6673 205.001 17.2668 204.033 17.7334C202.386 18.6275 198.725 19.2028 197.618 19.2028C196.469 19.2028 195.515 19.2728 194.772 18.9307C194.029 18.5886 193.662 18.0871 193.662 17.4223C193.662 16.8314 193.987 16.2561 194.634 15.7118C195.282 15.1676 196.09 14.6739 197.062 14.2579C198.035 13.8342 199.085 13.3327 200.226 12.7496C201.356 12.1664 202.416 11.5639 203.397 10.9535C204.385 10.3354 205.212 9.53849 205.875 8.57439C206.549 7.60251 206.909 6.52956 206.951 5.37497C206.985 4.69077 207.012 3.5906 207.012 2.08225C207.012 1.12981 206.514 0.601113 205.522 0.507812H187.821C187.304 0.554463 187.04 0.896563 187.04 1.53411L187.052 4.91624C187.055 5.43328 187.454 5.84536 187.944 5.84536L187.94 5.85313Z" fill="#FF5100"/>
    </svg>
    