<svg width="126" height="56" viewBox="0 0 126 56" fill="none" xmlns="http://www.w3.org/2000/svg">
    <g clip-path="url(#clip0_53_2920)">
    <path d="M11.7734 34.894C12.2632 35.1952 12.6527 35.5651 12.9392 36.0084C13.2258 36.4517 13.3678 37.0371 13.3678 37.7645L13.3727 40.9925C13.3727 42.418 12.8927 43.5961 11.9277 44.5317C10.9627 45.4673 9.39031 45.9351 7.20561 45.9375L0.0832812 45.9473L0.0783827 42.2441L5.87078 42.2367C7.07335 42.2367 7.88894 42.1314 8.3151 41.9257C8.74127 41.72 8.95435 41.2693 8.95435 40.5713V38.7197C8.9519 38.0241 8.65799 37.4461 8.07263 36.9881C7.48482 36.5301 6.4341 35.9863 4.91314 35.3544C3.1399 34.6613 1.88101 33.8849 1.13644 33.0326C0.389433 32.1754 0.0171523 30.9581 0.0147031 29.3759L7.78353e-06 16.9829C-0.00244143 14.9255 0.573125 13.2625 1.72671 11.9963C2.88029 10.73 4.40615 10.0932 6.30674 10.0908H6.92395C8.72902 10.1201 10.2083 10.6712 11.3644 11.7464C12.5204 12.8216 13.1009 14.5312 13.1033 16.8726L13.1131 25.7045L8.65064 25.7094L8.6384 16.4024C8.6384 14.6928 7.96976 13.8381 6.63984 13.8405H6.49778C5.73852 13.8405 5.1997 14.1124 4.88375 14.6488C4.5678 15.1876 4.41105 16.0105 4.41105 17.1176L4.42574 28.2762C4.42574 29.2902 4.53841 30.0568 4.76129 30.5785C4.98417 31.1001 5.30746 31.5043 5.73608 31.7884C6.16469 32.0725 6.86761 32.4521 7.84975 32.9248L9.27519 33.5886C10.4459 34.1568 11.2787 34.5903 11.7685 34.8915L11.7734 34.894Z" fill="#00C4B3"/>
    <path d="M28.1489 11.6314C28.9106 12.518 29.2902 13.9875 29.2926 16.0449L29.322 40.3068C29.322 42.2686 28.7636 43.6941 27.6419 44.5831C26.5201 45.4722 24.6759 45.9155 22.1115 45.9204H20.6396L20.6518 55.4185L16.2359 55.4234L16.182 10.3161L20.5979 10.3112V11.0705L21.6437 10.7839C22.91 10.4655 23.875 10.3063 24.5387 10.3063C26.1846 10.3063 27.3871 10.7472 28.1489 11.6314ZM24.4481 14.9354C24.1934 14.541 23.7354 14.3426 23.0716 14.3426C22.5328 14.3426 22.0283 14.4308 21.5531 14.6047C21.078 14.7786 20.762 14.8986 20.6028 14.9623L20.6371 42.2172C21.9352 42.2172 22.8683 42.1511 23.439 42.0237C24.0097 41.8963 24.3893 41.6343 24.5779 41.24C24.7665 40.8432 24.862 40.1868 24.8596 39.2683L24.8326 16.858C24.8326 15.9714 24.7028 15.3321 24.4505 14.9354H24.4481Z" fill="#00C4B3"/>
    <path d="M43.8434 11.4942C44.7766 12.3637 45.2468 13.9704 45.2493 16.3118L45.286 45.8935L40.8236 45.8984V45.1391L39.7312 45.4257C38.5286 45.7441 37.5955 45.9033 36.9293 45.9033C35.2834 45.9033 34.0809 45.4648 33.3192 44.5782C32.5574 43.6941 32.1778 42.2221 32.1754 40.1647L32.1533 21.7417C32.1509 19.4003 32.822 17.8646 34.1666 17.1347C35.5112 16.4049 37.2281 16.0399 39.3173 16.0351H40.7427C40.6791 15.3052 40.4954 14.7762 40.1941 14.4431C39.8929 14.11 39.3932 13.9459 38.6976 13.9459C38.127 13.9459 37.2722 14.0414 36.1333 14.2349C35.2467 14.4578 34.3454 14.5851 33.4269 14.617L33.422 10.8672C34.1813 10.8354 35.1316 10.7227 36.2705 10.5317C37.4412 10.3088 38.4846 10.1961 39.403 10.1961C41.4285 10.1937 42.9078 10.6272 43.8434 11.4967V11.4942ZM40.7917 19.4027H40.27C39.2267 19.4027 38.4429 19.5007 37.9212 19.6917C37.3996 19.8828 37.0444 20.1987 36.8534 20.642C36.6648 21.0853 36.5693 21.7515 36.5717 22.6357L36.5913 39.3492C36.5913 40.2039 36.7285 40.8383 36.9979 41.2473C37.2673 41.6588 37.7351 41.8645 38.3988 41.862C38.9058 41.862 39.3957 41.7812 39.8708 41.622C40.346 41.4628 40.6619 41.3526 40.8211 41.2889L40.7942 19.4003L40.7917 19.4027Z" fill="#00C4B3"/>
    <path d="M58.5632 12.1163C59.1192 13.3507 59.3666 15.2806 59.3054 17.9087L55.2225 17.9136C55.2225 16.5836 55.0609 15.675 54.7449 15.1827C54.4265 14.6928 53.9048 14.4479 53.1774 14.4479C52.7023 14.4479 52.2835 14.5214 51.9185 14.6634C51.5536 14.8055 51.2768 14.9108 51.0882 14.972L51.125 45.8812L46.709 45.8861L46.6649 10.2744L51.0809 10.2695V11.3619C51.5242 11.2345 51.9528 11.0753 52.3643 10.8867C52.9349 10.6639 53.4003 10.5047 53.7652 10.4092C54.1277 10.3136 54.5637 10.2646 55.0707 10.2646C56.8439 10.2646 58.0073 10.8794 58.5632 12.1114V12.1163Z" fill="#00C4B3"/>
    <path d="M74.3558 16.8923C74.3558 17.9062 74.1746 18.9178 73.8121 19.9317C73.4496 20.9457 72.8103 21.8005 71.8919 22.4985C73.5378 23.5419 74.3656 25.2808 74.368 27.7178L74.3901 45.8567L69.9276 45.8616L69.908 28.9596C69.908 27.6615 69.7782 26.7357 69.5259 26.1821C69.2712 25.6286 68.8989 25.2882 68.4091 25.1633C67.9168 25.0384 67.1037 24.9747 65.9623 24.9771H65.6782L65.7027 45.8689L61.2868 45.8738L61.2304 0.00489844L65.6464 0L65.6733 21.2715H66.8122C68.0148 21.269 68.8304 20.9506 69.2565 20.3187C69.6827 19.6844 69.8958 18.6728 69.8933 17.2792L69.886 10.2524L74.3484 10.2475L74.3558 16.8947V16.8923Z" fill="#00C4B3"/>
    <path d="M86.6901 6.90677L86.6852 2.63289L91.1011 2.62799L91.106 6.90188L86.6901 6.90677ZM86.7366 45.842L86.6925 10.2304L91.1084 10.2255L91.1525 45.8371L86.7366 45.842Z" fill="#00C4B3"/>
    <path d="M102.069 42.0727L102.074 45.8224H99.7003C97.5156 45.8273 96.0191 45.2689 95.2109 44.1447C94.4026 43.023 93.9961 41.3061 93.9936 38.994L93.952 4.37923L98.3679 4.37433L98.3753 10.2157L101.461 10.2108L101.466 13.914L98.3802 13.9189L98.4096 38.7981C98.4096 38.9867 98.4022 39.4471 98.3875 40.1745C98.3728 40.902 98.5467 41.4016 98.9117 41.6686C99.2766 41.938 99.8693 42.0702 100.692 42.0702H102.069V42.0727Z" fill="#00C4B3"/>
    <path d="M120.644 19.7407L122.25 18.6214C122.664 18.3348 122.765 17.7642 122.478 17.3527L119.757 13.4437C119.434 12.9808 119.764 12.3465 120.33 12.3465L125.094 12.3416C125.596 12.3416 126.005 11.9326 126.002 11.4305V9.46867C126 8.96658 125.591 8.55756 125.089 8.55756L120.325 8.56246C119.762 8.56246 119.429 7.93056 119.75 7.46521L122.461 3.55136C122.747 3.13744 122.645 2.56922 122.231 2.28266L120.622 1.16827C120.208 0.881709 119.639 0.984576 119.353 1.39849L115.37 7.14681L111.376 1.40829C111.087 0.994373 110.519 0.893955 110.107 1.18051L108.5 2.29981C108.086 2.58636 107.986 3.15703 108.273 3.5685L110.994 7.47745C111.317 7.94035 110.986 8.5747 110.421 8.5747L105.657 8.5796C105.155 8.5796 104.746 8.98862 104.748 9.49071V11.4525C104.751 11.9546 105.16 12.3636 105.662 12.3612L110.425 12.3563C110.989 12.3563 111.322 12.9882 111.001 13.4535L108.287 17.3674C108.001 17.7813 108.104 18.3495 108.517 18.6361L110.127 19.7505C110.541 20.037 111.109 19.9342 111.395 19.5203L115.378 13.7719L119.375 19.5105C119.661 19.9244 120.232 20.0248 120.644 19.7382" fill="#FF5100"/>
    </g>
    <defs>
    <clipPath id="clip0_53_2920">
    <rect width="126" height="55.4233" fill="white"/>
    </clipPath>
    </defs>
    </svg>
    