<svg width="52" height="16" viewBox="0 0 52 16" fill="none" xmlns="http://www.w3.org/2000/svg">
<path d="M38.8699 6.92732V9.65222C38.8699 9.90533 38.9004 10.1484 38.9647 10.378C39.0832 10.8271 39.3213 11.2258 39.6745 11.5786C40.2106 12.1106 40.8583 12.3771 41.6156 12.3771V15.102C40.8865 15.102 40.1846 14.9631 39.5132 14.6865C38.8394 14.4099 38.247 14.0156 37.7324 13.5049C37.3295 13.1051 36.9989 12.656 36.7416 12.1598C36.6682 12.0232 36.6016 11.8832 36.5418 11.7387C36.2631 11.0701 36.1231 10.3757 36.1231 9.65222V6.92732H34.0636V4.20243H36.1231V1.47754H38.8688V4.20243H41.6144V6.92732H38.8688H38.8699Z" fill="#00C4B3"/>
<path d="M0.203972 1.47754V4.20243H4.32301V15.1031H7.06866V4.20243H11.1877V1.47754H0.203972Z" fill="#00C4B3"/>
<path d="M13.6659 3.52036C13.1942 3.52036 12.7902 3.35348 12.4539 3.01973C12.1176 2.68598 11.9494 2.28503 11.9494 1.81688C11.9494 1.34873 12.1176 0.947782 12.4539 0.614031C12.7902 0.280279 13.1942 0.113403 13.6659 0.113403C14.1376 0.113403 14.5416 0.280279 14.8779 0.614031C15.2142 0.947782 15.3824 1.34873 15.3824 1.81688C15.3824 2.28503 15.2142 2.68598 14.8779 3.01973C14.5416 3.35348 14.1376 3.52036 13.6659 3.52036Z" fill="#00C4B3"/>
<path d="M19.1696 8.40344L18.9484 8.58264L19.349 8.26569L19.1685 8.40456L19.1696 8.40344ZM22.3554 9.4103L21.1321 10.3511L20.2462 11.0645L20.1537 11.1351L24.3156 15.1031H28.0916L22.3554 9.4103Z" fill="#00C4B3"/>
<path d="M19.8546 1.47754V7.87706L19.3502 8.26457L18.9496 8.58152L17.2884 9.89189L17.109 10.0341V1.47754H19.8546Z" fill="#00C4B3"/>
<path d="M19.8546 11.3691V15.1031H17.109V13.4915L17.7973 12.9595L19.8546 11.3691Z" fill="#00C4B3"/>
<path d="M32.6913 0.615129C32.3562 0.280258 31.951 0.114502 31.4793 0.114502C31.0076 0.114502 30.6036 0.280258 30.2673 0.615129C29.9321 0.947761 29.7629 1.34983 29.7629 1.81686C29.7629 2.28389 29.931 2.68708 30.2673 3.01971C30.6047 3.35458 31.0076 3.52034 31.4793 3.52034C31.951 3.52034 32.3562 3.35458 32.6913 3.01971C33.0265 2.68708 33.1958 2.28501 33.1958 1.81686C33.1958 1.34871 33.0276 0.947761 32.6913 0.615129Z" fill="#00C4B3"/>
<path d="M32.7861 15.1311L32.8493 15.0885V15.1311H32.7861Z" fill="#FF5100"/>
<path d="M32.8493 15.0885V15.1311H32.7861L32.8493 15.0885Z" fill="#ED6A3C"/>
<path d="M49.7069 6.80186L50.2565 6.39755C50.3976 6.29339 50.4326 6.08732 50.3344 5.93724L49.4056 4.52047C49.2962 4.35248 49.409 4.12288 49.602 4.12288H51.2304C51.402 4.12288 51.5419 3.97505 51.5419 3.79249V3.08243C51.5419 2.89988 51.402 2.75204 51.2304 2.75204H49.602C49.409 2.75204 49.2962 2.52244 49.4056 2.35445L50.3344 0.937684C50.4326 0.787607 50.3976 0.581533 50.2565 0.477375L49.7069 0.0730654C49.5659 -0.031092 49.3718 0.00586703 49.2725 0.155943L47.9092 2.23685L46.546 0.155943C46.4478 0.00586703 46.2537 -0.031092 46.1115 0.0730654L45.5619 0.477375C45.4209 0.581533 45.3859 0.787607 45.4841 0.937684L46.4128 2.35445C46.5223 2.52244 46.4095 2.75204 46.2165 2.75204H44.588C44.4165 2.75204 44.2766 2.89988 44.2766 3.08243V3.79249C44.2766 3.97505 44.4165 4.12288 44.588 4.12288H46.2165C46.4095 4.12288 46.5223 4.35248 46.4128 4.52047L45.4841 5.93724C45.3859 6.08732 45.4209 6.29339 45.5619 6.39755L46.1115 6.80186C46.2526 6.90601 46.4467 6.86906 46.546 6.71898L47.9092 4.63807L49.2725 6.71898C49.3706 6.86906 49.5648 6.90601 49.7069 6.80186Z" fill="#FF5100"/>
<path d="M32.8493 4.18785V15.1311H30.1454V11.5752L30.1443 4.18561L32.8493 4.18785Z" fill="#00C4B3"/>
<path d="M29.1162 4.20239L24.5345 7.73254L22.3542 9.41026L20.3816 7.45143L21.0395 6.92728L21.0723 6.90041L23.4828 4.97965L23.7852 4.7411L24.521 4.20239H29.1162Z" fill="#FF5100"/>
<path d="M17.2884 9.89185L17.109 10.0341L16.96 10.1506L17.0999 10.0363L17.109 10.0296L17.2884 9.89185Z" fill="#FF5100"/>
<path d="M17.109 10.0341V13.4914L15.4997 14.7346L15.4805 14.7481L15.2661 14.9138L15.0212 15.1031H12.3185V12.4398L12.3162 6.90601H15.0212V11.7185L15.0382 11.7028L16.96 10.1506L17.109 10.0341Z" fill="#FF5100"/>
</svg>
