<svg width="49" height="26" viewBox="0 0 49 26" fill="none" xmlns="http://www.w3.org/2000/svg">
    <g clip-path="url(#clip0_354_9051)">
    <path d="M32.0922 13.0984V10.3044C28.9339 10.3044 26.3736 12.8246 26.3736 15.9608L26.3711 21.0892C26.3711 21.4192 26.6398 21.6856 26.9727 21.6856H28.5888C28.9216 21.6856 29.1904 21.4192 29.1904 21.0892L29.1928 15.973C29.1928 15.973 29.1879 15.9645 29.1879 15.9608C29.1879 14.3671 30.4909 13.0984 32.0934 13.0984" fill="#FF5100"/>
    <path d="M25.1005 15.8141C24.9908 12.5276 22.0754 9.94018 18.6508 10.3472C16.0424 10.6576 13.9369 12.7745 13.6509 15.3643C13.2712 18.8024 15.9758 21.6819 19.3609 21.6819C20.4457 21.6746 21.2507 21.1576 21.7376 20.7078C21.9385 20.5208 22.2664 20.6663 22.2652 20.94L22.2615 21.6868H25.1005V15.8165V15.8141ZM19.3523 18.8696C17.7349 18.8696 16.4196 17.5826 16.4196 15.995C16.4196 14.4073 17.7337 13.1252 19.3523 13.1252C20.9708 13.1252 22.2837 14.411 22.2837 15.995C22.2837 17.579 20.9733 18.8696 19.3523 18.8696Z" fill="#FF5100"/>
    <path d="M12.366 21.4925H4.47532C2.50418 21.4925 0.900391 19.9024 0.900391 17.9481V13.8391C0.900391 11.8848 2.50418 10.2947 4.47532 10.2947H12.366V12.9994H4.47532C4.00934 12.9994 3.62966 13.3759 3.62966 13.8391V17.9481C3.62966 18.4114 4.00934 18.7866 4.47532 18.7866H12.366V21.4925Z" fill="#FF5100"/>
    <path d="M48.9515 16.0011C48.9515 18.6325 47.1665 20.8398 44.722 21.4791C44.2585 21.6013 43.7691 21.6661 43.2637 21.6661H36.3197L34.637 21.6673C34.2438 21.1772 34.0059 20.4634 34.0059 19.6934V19.471C34.0059 19.4636 34.0059 19.4539 34.0071 19.4465V12.5826L34.0083 12.5741C34.0071 12.5557 34.0059 12.5398 34.0059 12.5215V11.7564L34.9575 10.3215H43.2637C46.4219 10.3215 48.9515 12.8698 48.9515 16.0011Z" fill="#FF5100"/>
    <path d="M44.722 16.8994V23.6521C44.7269 25.2972 43.5583 26.4278 42.4698 25.8448L35.2004 22.1488C34.9896 22.0339 34.7997 21.8689 34.637 21.6685C34.2438 21.1784 34.0059 20.4646 34.0059 19.6946V11.7588C34.0059 10.9669 34.4472 10.368 34.9575 10.324H35.0796C35.1819 10.3325 35.2854 10.3631 35.389 10.4193L43.6508 14.7141C44.2868 15.0637 44.722 15.9376 44.722 16.9007" fill="#02C0B0"/>
    <path d="M37.8385 20.505V20.8191C37.8373 20.8986 37.7855 20.9389 37.7226 20.9059L37.1321 20.6016C37.0619 20.5649 37.0212 20.6443 37.0606 20.7409L37.3947 21.5402C37.4292 21.627 37.4169 21.7113 37.3664 21.7309L37.1667 21.8079C37.1149 21.8274 37.0446 21.7749 37.0076 21.6881L36.5158 20.5136L36.0202 21.1784C35.9832 21.2273 35.913 21.2078 35.8612 21.1357L35.6627 20.8533C35.6122 20.7812 35.5999 20.6835 35.6356 20.6333L35.9734 20.1811C36.0141 20.1274 35.9734 20.0051 35.9031 19.9697L35.3114 19.6641C35.2498 19.6324 35.1992 19.5395 35.1992 19.46V19.1459C35.2005 19.064 35.2522 19.0261 35.3139 19.0579L35.9056 19.3635C35.9746 19.3989 36.0165 19.3183 35.9771 19.2229L35.643 18.4236C35.6085 18.3393 35.6208 18.2549 35.6714 18.2354L35.8711 18.1584C35.9228 18.1388 35.9931 18.1914 36.0288 18.2769L36.5195 19.4502L37.0175 18.7866C37.0545 18.7401 37.1247 18.7597 37.1765 18.8318L37.375 19.1141C37.4255 19.1863 37.4379 19.2828 37.4021 19.3305L37.0643 19.7827C37.0237 19.8365 37.0643 19.9599 37.1346 19.9966L37.7239 20.3009C37.7867 20.3339 37.8385 20.4231 37.8385 20.505Z" fill="white"/>
    <path d="M43.4847 19.2643L35.1514 14.9658C35.0392 14.9084 34.9492 14.7641 34.9492 14.6431L34.9517 13.9954C34.9517 13.8756 35.0429 13.8243 35.1551 13.8817L43.4884 18.1802C43.6005 18.2377 43.6905 18.3819 43.6905 18.5016L43.6881 19.1494C43.6881 19.2692 43.5968 19.3205 43.4847 19.2631" fill="white"/>
    <path d="M7.4446 3.86584C7.22888 4.25206 6.89727 4.5625 6.45102 4.79961C6.00354 5.03671 5.45004 5.15527 4.78683 5.15527H3.56273V8.04212H1.58789V0H4.78806C5.43525 0 5.98135 0.111221 6.42883 0.33244C6.87508 0.55366 7.21038 0.859211 7.43351 1.2491C7.65663 1.63898 7.76881 2.08508 7.76881 2.58986C7.76881 3.05552 7.66033 3.48084 7.44584 3.86706M5.48086 3.33296C5.66577 3.15696 5.75823 2.90885 5.75823 2.58863C5.75823 2.26842 5.66577 2.02031 5.48086 1.84431C5.29595 1.66831 5.01489 1.58031 4.63767 1.58031H3.56273V3.59573H4.63767C5.01489 3.59573 5.29595 3.50773 5.48086 3.33174" fill="#FF5100"/>
    <path d="M12.9327 8.0409L11.2463 5.00494H10.7729V8.0409H8.79688V0H12.1129C12.7515 0 13.2976 0.111221 13.7475 0.33244C14.1975 0.553659 14.5352 0.857989 14.7584 1.24298C14.9815 1.6292 15.0937 2.0582 15.0937 2.53119C15.0937 3.06529 14.942 3.54318 14.6376 3.96239C14.3331 4.38283 13.8844 4.67983 13.2914 4.85583L15.1627 8.03967H12.9327V8.0409ZM10.7717 3.62018H11.9958C12.3582 3.62018 12.6294 3.53218 12.8107 3.35618C12.9919 3.18018 13.0819 2.93207 13.0819 2.61186C13.0819 2.29164 12.9906 2.06553 12.8107 1.89075C12.6294 1.71476 12.3582 1.62676 11.9958 1.62676H10.7717V3.62018Z" fill="#FF5100"/>
    <path d="M18.3042 1.56931V3.19607H20.9496V4.70794H18.3042V6.47158H21.296V8.0409H16.3281V0H21.296V1.56931H18.3042Z" fill="#FF5100"/>
    <path d="M28.4368 3.86584C28.2211 4.25206 27.8895 4.5625 27.4432 4.79961C26.9957 5.03671 26.4422 5.15527 25.779 5.15527H24.5549V8.04212H22.5801V0H25.7803C26.4274 0 26.9735 0.111221 27.421 0.33244C27.8673 0.55366 28.2026 0.859211 28.4257 1.2491C28.6488 1.63898 28.761 2.08508 28.761 2.58986C28.761 3.05552 28.6525 3.48084 28.438 3.86706M26.473 3.33296C26.658 3.15696 26.7504 2.90885 26.7504 2.58863C26.7504 2.26842 26.658 2.02031 26.473 1.84431C26.2881 1.66831 26.0071 1.58031 25.6299 1.58031H24.5549V3.59573H25.6299C26.0071 3.59573 26.2881 3.50773 26.473 3.33174" fill="#FF5100"/>
    <path d="M34.8372 6.62069H31.8108L31.3251 8.0409H29.2578L32.1917 0H34.4797L37.4136 8.0409H35.3229L34.8372 6.62069ZM34.3293 5.10882L33.3246 2.16453L32.331 5.10882H34.3293Z" fill="#FF5100"/>
    <path d="M40.2769 0H38.3008V8.0409H40.2769V0Z" fill="#FF5100"/>
    <path d="M46.99 0.503549C47.6286 0.839656 48.1241 1.31143 48.4742 1.91764C48.8243 2.52386 48.9994 3.2254 48.9994 4.01984C48.9994 4.81427 48.8243 5.50482 48.4742 6.11592C48.1241 6.72703 47.6273 7.20002 46.9838 7.53613C46.3404 7.87223 45.5958 8.03967 44.7477 8.03967H41.709V0H44.7477C45.602 0 46.349 0.167442 46.9888 0.503549M46.3662 5.73826C46.7817 5.33371 46.99 4.76049 46.99 4.01984C46.99 3.27918 46.7817 2.7023 46.3662 2.29042C45.9508 1.87853 45.369 1.67198 44.6219 1.67198H43.6863V6.3457H44.6219C45.369 6.3457 45.9508 6.14403 46.3662 5.73826Z" fill="#FF5100"/>
    </g>
    <defs>
    <clipPath id="clip0_354_9051">
    <rect width="48.1" height="26" fill="white" transform="translate(0.900391)"/>
    </clipPath>
    </defs>
    </svg>
    